<svg width="864" height="336" viewBox="0 0 864 336" class="keymap" xmlns="http://www.w3.org/2000/svg" xmlns:xlink="http://www.w3.org/1999/xlink">
<defs>/* start glyphs */
<svg id="mdi:apple-keyboard-control">
<svg xmlns="http://www.w3.org/2000/svg" id="mdi-apple-keyboard-control" viewBox="0 0 24 24"><path d="M19.78,11.78L18.36,13.19L12,6.83L5.64,13.19L4.22,11.78L12,4L19.78,11.78Z" /></svg>
</svg>
<svg id="mdi:apple-keyboard-option">
<svg xmlns="http://www.w3.org/2000/svg" id="mdi-apple-keyboard-option" viewBox="0 0 24 24"><path d="M3,4H9.11L16.15,18H21V20H14.88L7.84,6H3V4M14,4H21V6H14V4Z" /></svg>
</svg>
<svg id="mdi:apple-keyboard-shift">
<svg xmlns="http://www.w3.org/2000/svg" id="mdi-apple-keyboard-shift" viewBox="0 0 24 24"><path d="M15,18V12H17.17L12,6.83L6.83,12H9V18H15M12,4L22,14H17V20H7V14H2L12,4Z" /></svg>
</svg>
<svg id="mdi:backspace">
<svg xmlns="http://www.w3.org/2000/svg" id="mdi-backspace" viewBox="0 0 24 24"><path d="M22,3H7C6.31,3 5.77,3.35 5.41,3.88L0,12L5.41,20.11C5.77,20.64 6.31,21 7,21H22A2,2 0 0,0 24,19V5A2,2 0 0,0 22,3M19,15.59L17.59,17L14,13.41L10.41,17L9,15.59L12.59,12L9,8.41L10.41,7L14,10.59L17.59,7L19,8.41L15.41,12" /></svg>
</svg>
<svg id="mdi:backspace-reverse-outline">
<svg xmlns="http://www.w3.org/2000/svg" id="mdi-backspace-reverse-outline" viewBox="0 0 24 24"><path d="M5,15.59L6.41,17L10,13.41L13.59,17L15,15.59L11.41,12L15,8.41L13.59,7L10,10.59L6.41,7L5,8.41L8.59,12L5,15.59M2,3A2,2 0 0,0 0,5V19A2,2 0 0,0 2,21H17C17.69,21 18.23,20.64 18.59,20.11L24,12L18.59,3.88C18.23,3.35 17.69,3 17,3H2M2,5H17L21.72,12L17,19H2V5Z" /></svg>
</svg>
<svg id="mdi:keyboard-esc">
<svg xmlns="http://www.w3.org/2000/svg" id="mdi-keyboard-esc" viewBox="0 0 24 24"><path d="M1 7H7V9H3V11H7V13H3V15H7V17H1V7M11 7H15V9H11V11H13C14.11 11 15 11.9 15 13V15C15 16.11 14.11 17 13 17H9V15H13V13H11C9.9 13 9 12.11 9 11V9C9 7.9 9.9 7 11 7M19 7H21C22.11 7 23 7.9 23 9V10H21V9H19V15H21V14H23V15C23 16.11 22.11 17 21 17H19C17.9 17 17 16.11 17 15V9C17 7.9 17.9 7 19 7Z" /></svg>
</svg>
<svg id="mdi:keyboard-return">
<svg xmlns="http://www.w3.org/2000/svg" id="mdi-keyboard-return" viewBox="0 0 24 24"><path d="M19,7V11H5.83L9.41,7.41L8,6L2,12L8,18L9.41,16.58L5.83,13H21V7H19Z" /></svg>
</svg>
<svg id="mdi:keyboard-space">
<svg xmlns="http://www.w3.org/2000/svg" id="mdi-keyboard-space" viewBox="0 0 24 24"><path d="M3 15H5V19H19V15H21V19C21 20.1 20.1 21 19 21H5C3.9 21 3 20.1 3 19V15Z" /></svg>
</svg>
<svg id="mdi:keyboard-tab">
<svg xmlns="http://www.w3.org/2000/svg" id="mdi-keyboard-tab" viewBox="0 0 24 24"><path d="M20,18H22V6H20M11.59,7.41L15.17,11H1V13H15.17L11.59,16.58L13,18L19,12L13,6L11.59,7.41Z" /></svg>
</svg>
<svg id="mdi:transfer">
<svg xmlns="http://www.w3.org/2000/svg" id="mdi-transfer" viewBox="0 0 24 24"><path d="M8 4A2 2 0 0 0 6 6V10H8V6H16V9H13.5L17 12.5L20.5 9H18V6A2 2 0 0 0 16 4H8M3 12V14H11V12H3M3 15V17H11V15H3M13 15V17H21V15H13M3 18V20H11V18H3M13 18V20H21V18H13Z" /></svg>
</svg>
</defs>/* end glyphs */
<style>/* inherit to force styles through use tags */
svg path {
    fill: inherit;
}

/* font and background color specifications */
svg.keymap {
    font-family: SFMono-Regular,Consolas,Liberation Mono,Menlo,monospace;
    font-size: 14px;
    font-kerning: normal;
    text-rendering: optimizeLegibility;
    fill: #24292e;
}

/* default key styling */
rect.key {
    fill: #f6f8fa;
}

rect.key, rect.combo {
    stroke: #c9cccf;
    stroke-width: 1;
}

/* default key side styling, only used is draw_key_sides is set */
rect.side {
    filter: brightness(90%);
}

/* color accent for combo boxes */
rect.combo, rect.combo-separate {
    fill: #cdf;
}

/* color accent for held keys */
rect.held, rect.combo.held {
    fill: #fdd;
}

/* color accent for ghost (optional) keys */
rect.ghost, rect.combo.ghost {
    stroke-dasharray: 4, 4;
    stroke-width: 2;
}

text {
    text-anchor: middle;
    dominant-baseline: middle;
}

/* styling for layer labels */
text.label {
    font-weight: bold;
    text-anchor: start;
    stroke: white;
    stroke-width: 4;
    paint-order: stroke;
}

/* styling for optional footer */
text.footer {
    text-anchor: end;
    dominant-baseline: auto;
    stroke: white;
    stroke-width: 4;
    paint-order: stroke;
}

/* styling for combo tap, and key hold/shifted label text */
text.combo, text.hold, text.shifted {
    font-size: 11px;
}

text.hold {
    text-anchor: middle;
    dominant-baseline: auto;
}

text.shifted {
    text-anchor: middle;
    dominant-baseline: hanging;
}

/* styling for hold/shifted label text in combo box */
text.combo.hold, text.combo.shifted {
    font-size: 8px;
}

/* lighter symbol for transparent keys */
text.trans {
    fill: #7b7e81;
}

/* styling for combo dendrons */
path.combo {
    stroke-width: 1;
    stroke: gray;
    fill: none;
}

/* Start Tabler Icons Cleanup */
/* cannot use height/width with glyphs */
.icon-tabler > path {
    fill: inherit;
    stroke: inherit;
    stroke-width: 2;
}
/* hide tabler's default box */
.icon-tabler > path[stroke="none"][fill="none"] {
    visibility: hidden;
}
/* End Tabler Icons Cleanup */

/* For default sytles, see https://github.com/caksoylar/keymap-drawer/blob/main/keymap_drawer/config.py#L85 */

svg.keymap {
  font-family: Ubuntu Mono, Inconsolata, Consolas, Liberation Mono, Menlo, monospace;
  font-size: 12px;
  font-weight: bold;
  text-rendering: optimizeLegibility;
}

/* Color accent for held keys */
rect.held, rect.combo.held {
    fill: #ffc;
}

/* Technique borrowed and extended from https://github.com/englmaxi/zmk-config/blob/master/keymap-drawer/config.yaml */
.sym_sub_text.tap {
  translate: -5px 2px;
  font-size: 20px;
}
.sym_sub_text.shifted {
  translate: 10px 13px;
  font-size: 10px;
  opacity: 1.0;
}
.combo.sym_sub_text.tap {
  translate: -1px 1px;
}
.combo.sym_sub_text.shifted {
  translate: 7px 5px;
  font-size: 10px;
  opacity: 1.0;
}

/* Toggle */
.toggle.shifted {
  translate: -10px 12px;
}

.toggle.hold {
  translate: 13px -23px;
}

/* Variant for tap-dances */
.tap_dance.tap {
  translate: -7px 0px;
  font-size: 12px;
}
.tap_dance.shifted {
  translate: 7px 17px;
  font-size: 12px;
  opacity: 1.0;
}

/* Variant for symbol next to symbol */
.sym_by_sym.tap {
  translate: -6px 0px;
}
.sym_by_sym.shifted {
  translate: 10px 12px;
  opacity: 1.0;
}

.combo.sym_by_sym.tap {
  translate: -35px 0px;
}
.combo.sym_by_sym.shifted {
  translate: 35px 20px;
  opacity: 1.0;
}

.combo.sym_by_sym.hold {
  visibility: hidden;
}

/* hide hold box for combo sym_by_sym */
.combo.sym_by_sym.hold > path[stroke="none"][fill="none"] {
  visibility: hidden;
}
</style>
<g transform="translate(40, 0)" class="layer-base">
<text x="0" y="28" class="label">base:</text>
<g transform="translate(0, 56)">
<g transform="translate(84, 28)" class="key keypos-0">
<rect rx="6" ry="6" x="-26" y="-26" width="52" height="52" class="key side"/>
<rect rx="4" ry="4" x="-20" y="-24" width="40" height="40" class="key"/>
<text x="0" y="-4" class="key tap">Q</text>
</g>
<g transform="translate(140, 28)" class="key keypos-1">
<rect rx="6" ry="6" x="-26" y="-26" width="52" height="52" class="key side"/>
<rect rx="4" ry="4" x="-20" y="-24" width="40" height="40" class="key"/>
<text x="0" y="-4" class="key tap">W</text>
</g>
<g transform="translate(196, 28)" class="key keypos-2">
<rect rx="6" ry="6" x="-26" y="-26" width="52" height="52" class="key side"/>
<rect rx="4" ry="4" x="-20" y="-24" width="40" height="40" class="key"/>
<text x="0" y="-4" class="key tap">F</text>
</g>
<g transform="translate(252, 28)" class="key keypos-3">
<rect rx="6" ry="6" x="-26" y="-26" width="52" height="52" class="key side"/>
<rect rx="4" ry="4" x="-20" y="-24" width="40" height="40" class="key"/>
<text x="0" y="-4" class="key tap">P</text>
</g>
<g transform="translate(308, 28)" class="key keypos-4">
<rect rx="6" ry="6" x="-26" y="-26" width="52" height="52" class="key side"/>
<rect rx="4" ry="4" x="-20" y="-24" width="40" height="40" class="key"/>
<text x="0" y="-4" class="key tap">G</text>
</g>
<g transform="translate(476, 28)" class="key keypos-5">
<rect rx="6" ry="6" x="-26" y="-26" width="52" height="52" class="key side"/>
<rect rx="4" ry="4" x="-20" y="-24" width="40" height="40" class="key"/>
<text x="0" y="-4" class="key tap">J</text>
</g>
<g transform="translate(532, 28)" class="key keypos-6">
<rect rx="6" ry="6" x="-26" y="-26" width="52" height="52" class="key side"/>
<rect rx="4" ry="4" x="-20" y="-24" width="40" height="40" class="key"/>
<text x="0" y="-4" class="key tap">L</text>
</g>
<g transform="translate(588, 28)" class="key keypos-7">
<rect rx="6" ry="6" x="-26" y="-26" width="52" height="52" class="key side"/>
<rect rx="4" ry="4" x="-20" y="-24" width="40" height="40" class="key"/>
<text x="0" y="-4" class="key tap">U</text>
</g>
<g transform="translate(644, 28)" class="key keypos-8">
<rect rx="6" ry="6" x="-26" y="-26" width="52" height="52" class="key side"/>
<rect rx="4" ry="4" x="-20" y="-24" width="40" height="40" class="key"/>
<text x="0" y="-4" class="key tap">Y</text>
</g>
<g transform="translate(700, 28)" class="key keypos-9">
<rect rx="6" ry="6" x="-26" y="-26" width="52" height="52" class="key side"/>
<rect rx="4" ry="4" x="-20" y="-24" width="40" height="40" class="key"/>
<text x="0" y="-4" class="key tap">;</text>
<text x="0" y="-24" class="key shifted">:</text>
</g>
<g transform="translate(28, 84)" class="key keypos-10">
<rect rx="6" ry="6" x="-26" y="-26" width="52" height="52" class="key side"/>
<rect rx="4" ry="4" x="-20" y="-24" width="40" height="40" class="key"/>
<use href="#mdi:keyboard-tab" xlink:href="#mdi:keyboard-tab" x="-9" y="-13" height="18" width="18.0" class="key tap glyph mdi:keyboard-tab"/>
</g>
<g transform="translate(84, 84)" class="key keypos-11">
<rect rx="6" ry="6" x="-26" y="-26" width="52" height="52" class="key side"/>
<rect rx="4" ry="4" x="-20" y="-24" width="40" height="40" class="key"/>
<text x="0" y="-4" class="key tap">A</text>
</g>
<g transform="translate(140, 84)" class="key keypos-12">
<rect rx="6" ry="6" x="-26" y="-26" width="52" height="52" class="key side"/>
<rect rx="4" ry="4" x="-20" y="-24" width="40" height="40" class="key"/>
<text x="0" y="-4" class="key tap">R</text>
</g>
<g transform="translate(196, 84)" class="key keypos-13">
<rect rx="6" ry="6" x="-26" y="-26" width="52" height="52" class="key side"/>
<rect rx="4" ry="4" x="-20" y="-24" width="40" height="40" class="key"/>
<text x="0" y="-4" class="key tap">S</text>
</g>
<g transform="translate(252, 84)" class="key keypos-14">
<rect rx="6" ry="6" x="-26" y="-26" width="52" height="52" class="key side"/>
<rect rx="4" ry="4" x="-20" y="-24" width="40" height="40" class="key"/>
<text x="0" y="-4" class="key tap">T</text>
<use href="#mdi:apple-keyboard-shift" xlink:href="#mdi:apple-keyboard-shift" x="-8" y="9" height="15" width="15.0" class="key hold glyph mdi:apple-keyboard-shift"/>
</g>
<g transform="translate(308, 84)" class="key keypos-15">
<rect rx="6" ry="6" x="-26" y="-26" width="52" height="52" class="key side"/>
<rect rx="4" ry="4" x="-20" y="-24" width="40" height="40" class="key"/>
<text x="0" y="-4" class="key tap">D</text>
</g>
<g transform="translate(476, 84)" class="key keypos-16">
<rect rx="6" ry="6" x="-26" y="-26" width="52" height="52" class="key side"/>
<rect rx="4" ry="4" x="-20" y="-24" width="40" height="40" class="key"/>
<text x="0" y="-4" class="key tap">H</text>
</g>
<g transform="translate(532, 84)" class="key keypos-17">
<rect rx="6" ry="6" x="-26" y="-26" width="52" height="52" class="key side"/>
<rect rx="4" ry="4" x="-20" y="-24" width="40" height="40" class="key"/>
<text x="0" y="-4" class="key tap">N</text>
<use href="#mdi:apple-keyboard-shift" xlink:href="#mdi:apple-keyboard-shift" x="-8" y="9" height="15" width="15.0" class="key hold glyph mdi:apple-keyboard-shift"/>
</g>
<g transform="translate(588, 84)" class="key keypos-18">
<rect rx="6" ry="6" x="-26" y="-26" width="52" height="52" class="key side"/>
<rect rx="4" ry="4" x="-20" y="-24" width="40" height="40" class="key"/>
<text x="0" y="-4" class="key tap">E</text>
</g>
<g transform="translate(644, 84)" class="key keypos-19">
<rect rx="6" ry="6" x="-26" y="-26" width="52" height="52" class="key side"/>
<rect rx="4" ry="4" x="-20" y="-24" width="40" height="40" class="key"/>
<text x="0" y="-4" class="key tap">I</text>
</g>
<g transform="translate(700, 84)" class="key keypos-20">
<rect rx="6" ry="6" x="-26" y="-26" width="52" height="52" class="key side"/>
<rect rx="4" ry="4" x="-20" y="-24" width="40" height="40" class="key"/>
<text x="0" y="-4" class="key tap">O</text>
</g>
<g transform="translate(756, 84)" class="key keypos-21">
<rect rx="6" ry="6" x="-26" y="-26" width="52" height="52" class="key side"/>
<rect rx="4" ry="4" x="-20" y="-24" width="40" height="40" class="key"/>
<text x="0" y="-4" class="key tap">&#x27;</text>
<text x="0" y="-24" class="key shifted">&quot;</text>
</g>
<g transform="translate(28, 140)" class="key keypos-22">
<rect rx="6" ry="6" x="-26" y="-26" width="52" height="52" class="key side"/>
<rect rx="4" ry="4" x="-20" y="-24" width="40" height="40" class="key"/>
<use href="#mdi:backspace-reverse-outline" xlink:href="#mdi:backspace-reverse-outline" x="-9" y="-13" height="18" width="18.0" class="key tap glyph mdi:backspace-reverse-outline"/>
</g>
<g transform="translate(84, 140)" class="key keypos-23">
<rect rx="6" ry="6" x="-26" y="-26" width="52" height="52" class="key side"/>
<rect rx="4" ry="4" x="-20" y="-24" width="40" height="40" class="key"/>
<text x="0" y="-4" class="key tap">Z</text>
</g>
<g transform="translate(140, 140)" class="key keypos-24">
<rect rx="6" ry="6" x="-26" y="-26" width="52" height="52" class="key side"/>
<rect rx="4" ry="4" x="-20" y="-24" width="40" height="40" class="key"/>
<text x="0" y="-4" class="key tap">X</text>
</g>
<g transform="translate(196, 140)" class="key keypos-25">
<rect rx="6" ry="6" x="-26" y="-26" width="52" height="52" class="key side"/>
<rect rx="4" ry="4" x="-20" y="-24" width="40" height="40" class="key"/>
<text x="0" y="-4" class="key tap">C</text>
</g>
<g transform="translate(252, 140)" class="key keypos-26">
<rect rx="6" ry="6" x="-26" y="-26" width="52" height="52" class="key side"/>
<rect rx="4" ry="4" x="-20" y="-24" width="40" height="40" class="key"/>
<text x="0" y="-4" class="key tap">V</text>
</g>
<g transform="translate(308, 140)" class="key keypos-27">
<rect rx="6" ry="6" x="-26" y="-26" width="52" height="52" class="key side"/>
<rect rx="4" ry="4" x="-20" y="-24" width="40" height="40" class="key"/>
<text x="0" y="-4" class="key tap">B</text>
</g>
<g transform="translate(364, 140)" class="key trans keypos-28">
<rect rx="6" ry="6" x="-26" y="-26" width="52" height="52" class="key trans side"/>
<rect rx="4" ry="4" x="-20" y="-24" width="40" height="40" class="key trans"/>
<use href="#mdi:transfer" xlink:href="#mdi:transfer" x="-9" y="-13" height="18" width="18.0" class="key trans tap glyph mdi:transfer"/>
</g>
<g transform="translate(420, 140)" class="key trans keypos-29">
<rect rx="6" ry="6" x="-26" y="-26" width="52" height="52" class="key trans side"/>
<rect rx="4" ry="4" x="-20" y="-24" width="40" height="40" class="key trans"/>
<use href="#mdi:transfer" xlink:href="#mdi:transfer" x="-9" y="-13" height="18" width="18.0" class="key trans tap glyph mdi:transfer"/>
</g>
<g transform="translate(476, 140)" class="key keypos-30">
<rect rx="6" ry="6" x="-26" y="-26" width="52" height="52" class="key side"/>
<rect rx="4" ry="4" x="-20" y="-24" width="40" height="40" class="key"/>
<text x="0" y="-4" class="key tap">K</text>
</g>
<g transform="translate(532, 140)" class="key keypos-31">
<rect rx="6" ry="6" x="-26" y="-26" width="52" height="52" class="key side"/>
<rect rx="4" ry="4" x="-20" y="-24" width="40" height="40" class="key"/>
<text x="0" y="-4" class="key tap">M</text>
</g>
<g transform="translate(588, 140)" class="key keypos-32">
<rect rx="6" ry="6" x="-26" y="-26" width="52" height="52" class="key side"/>
<rect rx="4" ry="4" x="-20" y="-24" width="40" height="40" class="key"/>
<text x="0" y="-4" class="key tap">,</text>
<text x="0" y="-24" class="key shifted">&lt;</text>
</g>
<g transform="translate(644, 140)" class="key keypos-33">
<rect rx="6" ry="6" x="-26" y="-26" width="52" height="52" class="key side"/>
<rect rx="4" ry="4" x="-20" y="-24" width="40" height="40" class="key"/>
<text x="0" y="-4" class="key tap">.</text>
<text x="0" y="-24" class="key shifted">&gt;</text>
</g>
<g transform="translate(700, 140)" class="key keypos-34">
<rect rx="6" ry="6" x="-26" y="-26" width="52" height="52" class="key side"/>
<rect rx="4" ry="4" x="-20" y="-24" width="40" height="40" class="key"/>
<text x="0" y="-4" class="key tap">/</text>
<text x="0" y="-24" class="key shifted">?</text>
</g>
<g transform="translate(756, 140)" class="key keypos-35">
<rect rx="6" ry="6" x="-26" y="-26" width="52" height="52" class="key side"/>
<rect rx="4" ry="4" x="-20" y="-24" width="40" height="40" class="key"/>
<text x="0" y="-4" class="key tap">\</text>
<text x="0" y="-24" class="key shifted">|</text>
</g>
<g transform="translate(196, 196)" class="key keypos-36">
<rect rx="6" ry="6" x="-26" y="-26" width="52" height="52" class="key side"/>
<rect rx="4" ry="4" x="-20" y="-24" width="40" height="40" class="key"/>
<use href="#mdi:apple-keyboard-control" xlink:href="#mdi:apple-keyboard-control" x="-9" y="-13" height="18" width="18.0" class="key tap glyph mdi:apple-keyboard-control"/>
</g>
<g transform="translate(252, 196)" class="key keypos-37">
<rect rx="6" ry="6" x="-26" y="-26" width="52" height="52" class="key side"/>
<rect rx="4" ry="4" x="-20" y="-24" width="40" height="40" class="key"/>
<text x="0" y="-4" class="key tap">base</text>
</g>
<g transform="translate(308, 196)" class="key keypos-38">
<rect rx="6" ry="6" x="-26" y="-26" width="52" height="52" class="key side"/>
<rect rx="4" ry="4" x="-20" y="-24" width="40" height="40" class="key"/>
<use href="#mdi:keyboard-space" xlink:href="#mdi:keyboard-space" x="-9" y="-13" height="18" width="18.0" class="key tap glyph mdi:keyboard-space"/>
</g>
<g transform="translate(364, 196)" class="key keypos-39">
<rect rx="6" ry="6" x="-26" y="-26" width="52" height="52" class="key side"/>
<rect rx="4" ry="4" x="-20" y="-24" width="40" height="40" class="key"/>
<use href="#mdi:apple-keyboard-option" xlink:href="#mdi:apple-keyboard-option" x="-9" y="-13" height="18" width="18.0" class="key tap glyph mdi:apple-keyboard-option"/>
</g>
<g transform="translate(420, 196)" class="key keypos-40">
<rect rx="6" ry="6" x="-26" y="-26" width="52" height="52" class="key side"/>
<rect rx="4" ry="4" x="-20" y="-24" width="40" height="40" class="key"/>
<text x="0" y="-4" class="key tap">LGUI</text>
</g>
<g transform="translate(476, 196)" class="key enter keypos-41">
<rect rx="6" ry="6" x="-26" y="-26" width="52" height="52" class="key enter side"/>
<rect rx="4" ry="4" x="-20" y="-24" width="40" height="40" class="key enter"/>
<use href="#mdi:keyboard-return" xlink:href="#mdi:keyboard-return" x="-9" y="-13" height="18" width="18.0" class="key enter tap glyph mdi:keyboard-return"/>
</g>
<g transform="translate(532, 196)" class="key keypos-42">
<rect rx="6" ry="6" x="-26" y="-26" width="52" height="52" class="key side"/>
<rect rx="4" ry="4" x="-20" y="-24" width="40" height="40" class="key"/>
<text x="0" y="-4" class="key tap">base</text>
</g>
<g transform="translate(588, 196)" class="key backspace keypos-43">
<rect rx="6" ry="6" x="-26" y="-26" width="52" height="52" class="key backspace side"/>
<rect rx="4" ry="4" x="-20" y="-24" width="40" height="40" class="key backspace"/>
<use href="#mdi:backspace" xlink:href="#mdi:backspace" x="-9" y="-13" height="18" width="18.0" class="key backspace tap glyph mdi:backspace"/>
</g>
<g class="combo combopos-0">
<rect rx="6" ry="6" x="98" y="15" width="28" height="26" class="combo"/>
<use href="#mdi:keyboard-esc" xlink:href="#mdi:keyboard-esc" x="103" y="19" height="18" width="18.0" class="combo tap glyph mdi:keyboard-esc"/>
</g>
<g class="combo combopos-1">
<rect rx="6" ry="6" x="210" y="15" width="28" height="26" class="combo"/>
<text x="224" y="28" class="combo tap">[</text>
</g>
<g class="combo combopos-2">
<rect rx="6" ry="6" x="546" y="15" width="28" height="26" class="combo"/>
<text x="560" y="28" class="combo tap">]</text>
</g>
<g class="combo combopos-3">
<rect rx="6" ry="6" x="154" y="71" width="28" height="26" class="combo"/>
<text x="168" y="84" class="combo tap">(</text>
</g>
<g class="combo combopos-4">
<rect rx="6" ry="6" x="490" y="71" width="28" height="26" class="combo"/>
<text x="504" y="84" class="combo tap">)</text>
</g>
<g class="combo combopos-5">
<rect rx="6" ry="6" x="42" y="127" width="28" height="26" class="combo"/>
<text x="56" y="140" class="combo tap">{</text>
</g>
<g class="combo combopos-6">
<rect rx="6" ry="6" x="266" y="127" width="28" height="26" class="combo"/>
<text x="280" y="140" class="combo tap">}</text>
</g>
<g class="combo combopos-7">
<rect rx="6" ry="6" x="490" y="15" width="28" height="26" class="combo"/>
<text x="504" y="28" class="combo tap">\</text>
</g>
<g class="combo combopos-8">
<rect rx="6" ry="6" x="266" y="15" width="28" height="26" class="combo"/>
<text x="280" y="28" class="combo tap">|</text>
</g>
</g>
</g>
</svg>
